<?xml version="1.0" encoding="UTF-8" standalone="no"?>
<svg
   viewBox="0 0 100 100"
   version="1.1"
   id="svg279"
   sodipodi:docname="favicon.svg"
   xml:space="preserve"
   inkscape:version="1.2.2 (732a01da63, 2022-12-09)"
   xmlns:inkscape="http://www.inkscape.org/namespaces/inkscape"
   xmlns:sodipodi="http://sodipodi.sourceforge.net/DTD/sodipodi-0.dtd"
   xmlns="http://www.w3.org/2000/svg"
   xmlns:svg="http://www.w3.org/2000/svg"><defs
     id="defs283" /><sodipodi:namedview
     id="namedview281"
     pagecolor="#ffffff"
     bordercolor="#000000"
     borderopacity="0.25"
     inkscape:showpageshadow="2"
     inkscape:pageopacity="0.0"
     inkscape:pagecheckerboard="0"
     inkscape:deskcolor="#d1d1d1"
     showgrid="false"
     inkscape:zoom="14.891669"
     inkscape:cx="68.796856"
     inkscape:cy="55.870165"
     inkscape:window-width="3440"
     inkscape:window-height="1369"
     inkscape:window-x="-8"
     inkscape:window-y="-8"
     inkscape:window-maximized="1"
     inkscape:current-layer="text548" /><!-- Background --><rect
     width="100"
     height="100"
     fill="#5d4037"
     rx="10"
     id="rect265" /><!-- City Hunt Icon - Map Pin with Building --><path
     style="fill:#f4eed7;stroke-width:0.024193"
     d="m 56.205642,67.870209 c -0.618736,-0.158019 -1.171353,-0.299626 -1.22804,-0.314681 -0.05668,-0.01505 -0.15043,-0.06907 -0.208324,-0.120024 l -0.105261,-0.09265 -1.751308,-0.438012 C 51.33626,66.510564 50.96332,66.426996 49.17757,66.06787 46.698509,65.569313 44.01695,65.106033 41.21169,64.691643 L 39.173099,64.390505 37.292421,63.65444 C 35.506269,62.955371 35.319325,62.887891 33.573073,62.311916 L 31.734404,61.70546 30.040892,60.722788 28.347381,59.740114 26.532905,58.87577 24.718428,58.011426 23.113328,56.901402 21.508227,55.791377 20.280321,54.4958 C 19.196197,53.35193 18.918315,53.04158 17.90721,51.845414 L 16.762006,50.4906 15.734654,48.942247 C 15.16961,48.090652 14.28093,46.735238 13.759809,45.930216 l -0.947492,-1.463678 -0.584842,-1.693511 -0.584842,-1.693512 -0.413571,-1.7298 -0.413571,-1.729801 -0.300341,-1.753994 -0.300342,-1.753994 -0.0879,-1.792219 -0.0879,-1.792216 0.452016,-1.618999 c 0.248608,-0.890449 0.686759,-2.408295 0.973668,-3.372991 l 0.521654,-1.753994 0.953576,-1.439485 0.953575,-1.439484 1.265529,-1.161265 1.265529,-1.161265 1.356929,-0.973486 c 0.746311,-0.535418 1.382216,-0.984364 1.413122,-0.997658 0.03091,-0.01329 0.774726,-0.210103 1.652932,-0.437354 l 1.596739,-0.413184 1.714857,-0.187114 1.714857,-0.187113 1.732649,0.175859 1.732648,0.17586 1.748207,0.663828 1.748204,0.663827 1.562726,1.031438 1.562724,1.031437 1.479287,1.314623 c 0.813609,0.723042 2.061299,1.835774 2.772648,2.472737 l 1.293359,1.158115 1.202289,1.413296 1.202289,1.413298 1.050768,1.550347 1.050771,1.550349 0.974925,1.741897 c 0.576723,1.030432 1.301998,2.372382 1.775705,3.285528 0.596014,1.148912 0.805509,1.532466 0.819268,1.499967 0.01017,-0.02401 0.226584,-0.756752 0.480921,-1.628306 0.420126,-1.439673 0.498405,-1.738905 0.855639,-3.27086 l 0.393209,-1.686219 0.951357,-1.797575 0.951354,-1.797578 1.173942,-1.669318 1.173942,-1.669319 1.428237,-1.443157 1.428237,-1.443158 1.487871,-1.29765 1.487871,-1.297651 1.681415,-1.108593 c 0.924778,-0.609725 1.714268,-1.125397 1.754424,-1.145936 0.104874,-0.05364 3.336038,-0.579225 5.297841,-0.861753 l 1.669314,-0.240405 1.7419,-0.01624 1.7419,-0.01624 1.75399,0.20825 1.754,0.208251 1.66931,0.54645 1.66932,0.546449 1.45158,0.955402 c 0.79837,0.525471 1.48453,0.98967 1.5248,1.031552 0.17564,0.182662 2.29809,2.940812 2.34798,3.051211 0.0302,0.0669 0.1474,0.233464 0.26037,0.37013 0.14392,0.174103 0.22714,0.300837 0.27802,0.423378 0.0399,0.09619 0.25321,0.613529 0.47393,1.149638 l 0.40131,0.974745 0.33609,1.178433 0.3361,1.178435 0.21118,1.161265 0.21118,1.161265 -0.0146,2.431398 -0.0146,2.431398 -0.15593,1.233844 c -0.14029,1.11009 -0.17943,1.35263 -0.39025,2.418153 l -0.23432,1.184306 -0.4239,1.149728 -0.42389,1.149729 -0.65872,1.04089 c -0.5205,0.82249 -0.84371,1.29724 -1.54038,2.262638 -1.89123,2.620723 -1.86611,2.587772 -2.68726,3.52502 -0.41731,0.476307 -1.14535,1.317817 -1.61787,1.870023 -1.0145,1.185589 -2.15549,2.473081 -3.21602,3.628953 -0.5869,0.639661 -0.96875,1.027257 -1.63445,1.659043 -1.47424,1.399131 -2.49644,2.327057 -3.53883,3.212468 l -1.00086,0.850138 -1.055542,0.709484 c -0.67852,0.456068 -1.431438,0.934889 -2.107938,1.340545 -1.407368,0.843918 -2.804858,1.783606 -4.122923,2.7723 -1.319197,0.989545 -2.875921,2.055267 -4.213698,2.884667 -0.584303,0.362259 -1.481511,0.931346 -1.993798,1.264639 -1.415848,0.921152 -1.317576,0.86333 -1.461321,0.859786 -0.06882,-0.0017 -0.620507,-0.130018 -1.248297,-0.29035 z m 2.280792,-1.238371 c 0.601772,-0.390059 1.524165,-0.975109 2.049759,-1.300111 1.228494,-0.759641 2.771211,-1.816816 4.040234,-2.768644 1.365543,-1.024221 2.78585,-1.980748 4.221681,-2.843156 0.714038,-0.428877 1.47278,-0.910592 2.1171,-1.344121 l 1.004224,-0.675687 0.95264,-0.808874 c 0.98861,-0.83942 2.18129,-1.923589 3.59718,-3.269914 0.63142,-0.600391 1.00846,-0.985154 1.60986,-1.642861 1.04546,-1.143333 2.14938,-2.389259 3.03313,-3.423312 0.39802,-0.465715 1.11816,-1.29856 1.60031,-1.850766 0.80324,-0.919968 0.931,-1.078938 1.52624,-1.899152 1.83951,-2.534731 2.10011,-2.907096 2.72277,-3.890549 l 0.62516,-0.987387 0.39963,-1.081116 0.39962,-1.081116 0.22804,-1.149169 c 0.20213,-1.018569 0.24464,-1.281042 0.37405,-2.309564 l 0.14601,-1.160399 0.0227,-1.331482 c 0.0125,-0.732318 0.0231,-1.794176 0.0237,-2.359688 l 0.001,-1.028203 -0.19921,-1.09346 c -0.10957,-0.601399 -0.20258,-1.090093 -0.20669,-1.085983 -0.004,0.0041 0.0407,0.403629 0.0995,0.887818 l 0.107,0.880343 -0.0175,1.911249 -0.0175,1.911248 -0.29461,1.80238 -0.2946,1.80238 -0.56567,1.731734 c -0.31112,0.952452 -0.58468,1.768495 -0.60792,1.813429 -0.0232,0.04493 -0.43478,0.757154 -0.91455,1.582712 -0.78746,1.355003 -0.96965,1.648099 -1.87297,3.013076 l -1.00065,1.512064 -1.18811,1.366905 c -0.65346,0.751798 -1.73888,1.964834 -2.41204,2.695635 -1.08659,1.179625 -1.36782,1.468085 -2.50616,2.570597 l -1.28223,1.241867 -1.20965,1.396343 -1.20965,1.396346 -1.56045,0.965987 c -1.069127,0.661833 -2.05178,1.245166 -3.120903,1.852665 l -1.56045,0.886679 -1.487871,1.101455 c -0.818328,0.6058 -2.108421,1.562399 -2.866872,2.125777 l -1.379002,1.024321 -1.56045,0.971591 c -0.858247,0.534376 -2.066689,1.268864 -2.685425,1.632192 -0.618737,0.363331 -1.139399,0.673981 -1.157031,0.690331 -0.02567,0.02381 0.08264,0.05884 0.544343,0.176009 0.31702,0.08045 0.590275,0.147292 0.60724,0.14853 0.01696,0.0012 0.5232,-0.316889 1.124975,-0.706949 z m -1.787201,-1.073229 c 0.693222,-0.40817 1.949227,-1.170888 2.79112,-1.694929 l 1.530718,-0.952803 2.013559,-1.493723 c 1.107459,-0.821546 2.405487,-1.783666 2.884509,-2.138043 l 0.870949,-0.644323 1.52416,-0.864601 c 1.030226,-0.584406 2.024547,-1.173942 3.068229,-1.81916 l 1.544065,-0.954565 1.16988,-1.351697 1.16987,-1.351698 1.29221,-1.252033 c 1.13615,-1.10083 1.43629,-1.40834 2.48533,-2.546358 0.65621,-0.71188 1.71544,-1.893104 2.35383,-2.624943 l 1.16071,-1.330616 0.98091,-1.475774 c 0.88643,-1.333626 1.06583,-1.621419 1.86256,-2.987838 l 0.88165,-1.512064 0.55452,-1.693511 0.55452,-1.693511 0.28755,-1.790284 0.28755,-1.790283 0.006,-1.826573 0.006,-1.826573 -0.2113,-1.705608 -0.2113,-1.705607 -0.51101,-1.723862 -0.51101,-1.723862 -1.0661,-1.368481 -1.0661,-1.368481 -1.34984,-0.892642 -1.34984,-0.892642 -1.57752,-0.518253 -1.57751,-0.518253 -1.67754,-0.198237 -1.67754,-0.198237 -1.649,0.01624 -1.649,0.01624 -1.741896,0.252174 c -0.958044,0.138696 -2.454987,0.369578 -3.326541,0.51307 l -1.584642,0.260896 -1.612109,1.063358 -1.612109,1.063359 -1.473,1.285321 -1.473001,1.285321 -1.376104,1.394345 -1.376106,1.394346 -1.120091,1.590402 -1.120091,1.5904 -0.911177,1.717705 -0.911174,1.717704 -0.384129,1.645125 c -0.350815,1.503241 -0.425688,1.788053 -0.868127,3.302347 l -0.4842,1.657222 -0.349364,1.681415 c -0.19215,0.924778 -0.497718,2.430849 -0.679037,3.346824 -0.18132,0.915974 -0.487359,2.369369 -0.68009,3.229768 -0.192729,0.860398 -0.34641,1.586561 -0.341516,1.613693 0.0049,0.02714 0.635396,1.186586 1.401114,2.576557 0.765719,1.389973 1.543355,2.80211 1.728084,3.138086 0.184725,0.335976 0.34131,0.61015 0.347963,0.609277 0.0067,-8.71e-4 0.376806,-0.448744 0.822563,-0.995269 0.445756,-0.546526 1.343922,-1.621465 1.995924,-2.388756 l 1.185457,-1.395074 1.31852,-1.197956 1.31852,-1.197953 1.113967,-1.389408 c 0.612681,-0.764173 1.600063,-2.026286 2.194184,-2.804697 l 1.080218,-1.415291 0.947534,-1.016107 c 0.521142,-0.558859 0.968855,-1.03938 0.994914,-1.067829 l 0.04738,-0.05172 -1.241559,-0.708913 c -1.152122,-0.657847 -1.350488,-0.781428 -2.753625,-1.715501 -0.831635,-0.553623 -2.207882,-1.446996 -3.058327,-1.985274 -1.196163,-0.757094 -1.561531,-0.999677 -1.613701,-1.071405 -0.07864,-0.108123 -0.109376,-0.269065 -0.07628,-0.399443 0.01285,-0.0506 0.48441,-0.885951 1.047923,-1.856328 l 1.024567,-1.764322 1.05102,-1.512064 c 1.268629,-1.825131 1.216549,-1.754311 1.334192,-1.814326 0.117418,-0.0599 0.334268,-0.06453 0.450019,-0.0096 0.04633,0.02198 0.611406,0.576432 1.297982,1.273564 1.453865,1.476214 3.420005,3.380536 4.651345,4.505098 0.492328,0.449634 0.940342,0.860882 0.995586,0.913881 l 0.100445,0.09637 0.988241,-1.387513 0.988242,-1.387513 1.338684,-1.572789 c 1.039308,-1.22106 1.615518,-1.92574 2.576558,-3.151034 1.12365,-1.432621 1.24891,-1.583857 1.35754,-1.639077 0.14191,-0.07214 0.2984,-0.07863 0.43099,-0.01786 0.18537,0.08495 2.54194,2.103798 3.79482,3.250985 l 1.22459,1.121269 1.09794,1.205073 c 0.60387,0.66279 1.12244,1.249671 1.15238,1.304181 0.0711,0.12949 0.0733,0.322575 0.005,0.456181 -0.0363,0.07114 -0.40323,0.405939 -1.39092,1.269093 l -1.34162,1.172459 -1.43361,1.008334 -1.43362,1.008333 -1.10683,0.969385 c -0.60875,0.533159 -1.10683,0.977103 -1.10683,0.986539 0,0.05652 2.6564,2.542824 3.96766,3.713594 1.19408,1.066148 1.52351,1.37276 1.5665,1.458007 0.0669,0.132679 0.0699,0.292406 0.008,0.424299 -0.027,0.05742 -0.54079,0.63002 -1.26356,1.40815 l -1.21807,1.311378 -1.23385,1.116474 c -0.6928,0.626899 -1.27628,1.136361 -1.33061,1.161826 -0.0532,0.02495 -0.14282,0.04559 -0.19911,0.04589 -0.2236,0.0012 -0.22435,4.83e-4 -1.46737,-1.306624 l -1.16813,-1.228367 -1.09496,-0.947519 c -0.602232,-0.521135 -1.107566,-0.952134 -1.122967,-0.957771 -0.0154,-0.0056 -0.485247,0.405045 -1.044106,0.912626 -1.910043,1.734792 -3.74941,3.348839 -5.068437,4.447555 -1.147395,0.955755 -1.485137,1.253879 -2.602317,2.297077 l -1.283796,1.198781 -1.361009,1.044204 -1.36101,1.044205 -1.13001,1.333713 -1.130008,1.333712 -1.221849,0.936527 c -0.672016,0.515088 -1.250549,0.959178 -1.285629,0.986864 l -0.06378,0.05034 0.506914,2.027203 c 0.501255,2.004585 0.51338,2.047951 1.08674,3.886662 0.318905,1.022701 0.57983,1.865088 0.57983,1.871968 0,0.0069 0.01254,0.01251 0.02788,0.01251 0.01533,0 0.595056,-0.333958 1.288278,-0.742129 z m -7.004099,-4.800736 c 0.122027,-0.02752 0.266268,-0.121224 0.39281,-0.255179 0.06235,-0.066 0.107139,-0.151932 0.154441,-0.296292 0.05814,-0.177448 0.06466,-0.226587 0.05119,-0.385941 -0.01867,-0.220868 -0.08505,-0.331897 -0.273052,-0.456726 -0.116051,-0.07705 -0.139303,-0.0832 -0.31478,-0.0832 -0.122056,-2e-6 -0.243365,0.01709 -0.340935,0.04804 l -0.151463,0.04805 0.0818,-0.112462 c 0.04499,-0.06185 0.100617,-0.149382 0.123615,-0.194512 0.105145,-0.206335 0.37734,-0.369117 0.714514,-0.427304 0.177862,-0.03069 0.245496,-0.03264 0.35376,-0.01016 0.145158,0.03014 0.162957,0.02612 0.140745,-0.03177 -0.0202,-0.05265 -0.123351,-0.08541 -0.438457,-0.139265 -0.267836,-0.04577 -0.272298,-0.04576 -0.457498,0.0016 -0.23609,0.06038 -0.422231,0.145303 -0.577678,0.263552 -0.137753,0.104787 -0.206246,0.192634 -0.377975,0.484787 -0.09685,0.164764 -0.127151,0.244206 -0.155784,0.408402 -0.05559,0.318745 -0.04764,0.562551 0.02281,0.700318 0.08028,0.156988 0.241303,0.28225 0.504918,0.392786 0.235258,0.09864 0.29021,0.10319 0.547021,0.04527 z m -0.437376,-0.189601 c -0.04904,-0.0095 -0.127969,-0.04695 -0.175399,-0.08313 l -0.08624,-0.06578 v -0.251145 c 0,-0.219615 0.0092,-0.27641 0.07361,-0.452388 0.04049,-0.110683 0.09156,-0.214851 0.113492,-0.231483 0.02499,-0.01895 0.117213,-0.02987 0.246943,-0.02923 0.200787,9.67e-4 0.209911,0.0035 0.300901,0.08388 0.08243,0.0728 0.09579,0.09988 0.109908,0.222779 0.02585,0.225009 -0.09209,0.540179 -0.271893,0.726584 -0.103519,0.107318 -0.132379,0.114726 -0.31133,0.07991 z m -1.133757,-0.69507 c 0.0013,-0.03253 -0.293675,-0.151427 -0.556326,-0.224212 -0.09764,-0.02706 -0.265262,-0.09236 -0.3725,-0.145129 -0.107238,-0.05276 -0.227637,-0.108926 -0.267556,-0.124804 l -0.07258,-0.02887 0.108869,-0.02247 c 0.152017,-0.03137 0.586098,-0.156546 0.774177,-0.223246 0.08649,-0.03067 0.206245,-0.06385 0.266123,-0.07373 0.229795,-0.03791 0.489952,-0.21444 0.642552,-0.436009 0.08019,-0.116434 0.09176,-0.152102 0.102225,-0.315153 0.01709,-0.266348 -0.03984,-0.377779 -0.289223,-0.566078 -0.172641,-0.130354 -0.20243,-0.143987 -0.348948,-0.159676 -0.108931,-0.01167 -0.21936,-0.0055 -0.345089,0.01918 -0.101693,0.01998 -0.188979,0.03272 -0.193972,0.02829 -0.005,-0.0044 0.0086,-0.05226 0.03024,-0.106307 0.02163,-0.05405 0.03932,-0.103307 0.03932,-0.109466 0,-0.02158 -0.243948,-0.134588 -0.263905,-0.122255 -0.01109,0.0069 -0.02719,0.04758 -0.03577,0.0905 -0.01443,0.07215 -0.04954,0.157397 -0.235422,0.571528 l -0.06849,0.152605 0.126188,0.05846 0.126189,0.05846 0.0472,-0.0901 c 0.02596,-0.04956 0.07,-0.155174 0.09786,-0.234701 0.04922,-0.140491 0.05404,-0.145555 0.169733,-0.17823 0.10592,-0.02992 0.133754,-0.02901 0.251961,0.0083 0.274216,0.08644 0.411816,0.276357 0.379071,0.523196 -0.02167,0.163363 -0.119291,0.35404 -0.227611,0.444585 -0.16654,0.139209 -0.53273,0.325701 -0.780614,0.397547 -0.13298,0.03854 -0.26991,0.08851 -0.304288,0.111036 -0.03438,0.02253 -0.129149,0.06048 -0.2106,0.08434 -0.231919,0.06793 -0.31801,0.112517 -0.34912,0.180794 -0.01584,0.03477 -0.02881,0.0664 -0.02881,0.07027 0,0.02195 0.612228,0.291896 0.858852,0.378691 0.159674,0.05619 0.34851,0.134803 0.419635,0.174683 0.07112,0.03988 0.179993,0.08574 0.24193,0.101906 l 0.112611,0.0294 0.07745,-0.14741 c 0.0426,-0.08108 0.07798,-0.160228 0.07863,-0.175893 z m -1.708915,-1.59327 c 0.02242,-0.04702 0.04077,-0.09045 0.04077,-0.0965 0,-0.01725 -0.364316,-0.194913 -0.470119,-0.229255 -0.05232,-0.01698 -0.237394,-0.100138 -0.411281,-0.184787 -0.173885,-0.08465 -0.329543,-0.153913 -0.345905,-0.153923 -0.01636,-1.2e-5 -0.05119,0.04201 -0.0774,0.09338 l -0.04765,0.09339 0.410498,0.176121 c 0.225772,0.09687 0.50507,0.223584 0.62066,0.281597 0.115591,0.05801 0.216798,0.105476 0.224908,0.105476 0.0081,0 0.03309,-0.03847 0.05551,-0.08549 z m -2.257567,-0.02974 c 0.376695,-0.21775 0.484809,-0.391119 0.483328,-0.77505 -0.0014,-0.348849 -0.195867,-0.538317 -0.82203,-0.800668 -0.0998,-0.04181 -0.207088,-0.09579 -0.238427,-0.119942 l -0.05698,-0.04392 0.05372,-0.106844 c 0.04314,-0.08582 0.206185,-0.371133 0.231493,-0.4051 0.0033,-0.0044 0.134799,0.06294 0.292324,0.149559 0.157526,0.08663 0.368061,0.186528 0.467857,0.222007 0.0998,0.03548 0.248767,0.101669 0.33105,0.147092 0.08228,0.04542 0.155167,0.07357 0.161972,0.06256 0.0068,-0.01101 0.03601,-0.0832 0.0649,-0.160421 0.05803,-0.155114 0.06595,-0.137775 -0.110354,-0.241846 -0.05322,-0.03142 -0.123989,-0.06475 -0.157255,-0.07407 -0.03327,-0.0093 -0.142134,-0.05812 -0.24193,-0.108445 -0.312366,-0.157516 -0.778311,-0.367425 -0.78989,-0.355846 -0.0061,0.0061 -0.02994,0.05858 -0.05299,0.116632 -0.02305,0.05805 -0.1394,0.296072 -0.258556,0.52893 -0.119158,0.232858 -0.219433,0.434264 -0.222834,0.447571 -0.0094,0.03682 0.153115,0.138764 0.368578,0.231176 0.141553,0.06072 0.23457,0.121986 0.346606,0.228317 l 0.153132,0.145332 -2.42e-4,0.226899 c -2.42e-4,0.223994 -0.0012,0.227971 -0.08048,0.31058 -0.284556,0.296338 -0.697255,0.248971 -0.933715,-0.107165 l -0.08676,-0.130669 0.08902,-0.164812 c 0.04896,-0.09065 0.08902,-0.174959 0.08902,-0.187358 0,-0.0124 -0.05435,-0.04551 -0.120786,-0.07358 l -0.120788,-0.05103 -0.0459,0.100662 c -0.136613,0.299636 -0.268968,0.598913 -0.268968,0.608194 0,0.01238 0.203212,0.133586 0.223967,0.133586 0.0077,0 0.03317,-0.05716 0.05651,-0.127013 l 0.04244,-0.127014 0.04619,0.10532 c 0.08773,0.20003 0.408966,0.426005 0.671199,0.472158 0.125131,0.02202 0.327063,-0.01312 0.435474,-0.07579 z m 9.553893,-1.397355 1.37338,-1.052922 1.129763,-1.333565 1.129763,-1.333562 1.384247,-1.062681 1.38425,-1.062681 1.24594,-1.163803 c 1.074226,-1.00341 1.435786,-1.322436 2.623448,-2.314822 1.44247,-1.205298 3.128578,-2.68698 5.218731,-4.586009 0.683264,-0.620786 1.27496,-1.14627 1.314879,-1.167741 0.05143,-0.02766 0.146605,-0.04045 0.326606,-0.04389 0.158169,-0.003 0.527586,-0.047 0.978973,-0.116562 0.8106,-0.124911 0.93458,-0.132786 1.04114,-0.06613 0.18075,0.113056 2.41139,2.183971 3.62064,3.36139 l 0.25781,0.251022 0.47177,-0.426893 c 0.35306,-0.319474 0.72107,-0.695999 1.46253,-1.496341 0.54492,-0.588197 0.99502,-1.077787 1.00022,-1.087977 0.005,-0.01019 -0.58487,-0.549089 -1.31128,-1.197554 -1.31607,-1.174854 -4.15204,-3.850776 -4.24613,-4.0065 -0.0334,-0.05524 -0.0458,-0.121937 -0.0458,-0.246909 0,-0.143017 0.01,-0.185773 0.0604,-0.259605 0.0333,-0.04861 0.66408,-0.617242 1.40181,-1.263614 l 1.34132,-1.175224 1.44087,-1.013782 1.44087,-1.013782 1.01611,-0.886979 c 0.55886,-0.487837 1.05729,-0.924025 1.10763,-0.969307 l 0.0915,-0.08233 -0.91408,-1.004047 c -0.91005,-0.999607 -0.91938,-1.008883 -2.11025,-2.098086 -0.95789,-0.876112 -1.74185,-1.566709 -2.18256,-1.922651 -0.0322,-0.02597 -0.1619,0.114189 -0.91801,0.991631 -0.48432,0.562028 -1.52331,1.756861 -2.30888,2.655181 -1.20069,1.373036 -1.61477,1.867365 -2.598437,3.102056 -0.857059,1.075774 -1.191823,1.479035 -1.251188,1.507205 -0.05943,0.0282 -0.214957,0.0449 -0.582943,0.06258 -0.872579,0.04193 -0.973752,0.04058 -1.073766,-0.01441 -0.137206,-0.07543 -2.450225,-2.205825 -3.685238,-3.394273 -0.612555,-0.589458 -1.549209,-1.512622 -2.081456,-2.051474 l -0.96772,-0.97973 -0.530628,1.132139 c -0.414688,0.884768 -0.656062,1.443849 -1.104695,2.558746 -0.513639,1.276433 -0.569835,1.429493 -0.533865,1.454039 0.02211,0.01509 0.633836,0.381761 1.359389,0.814828 0.725551,0.433067 2.010201,1.222108 2.854776,1.753421 1.324842,0.833447 1.726506,1.101067 2.926688,1.949998 0.765104,0.541186 1.420808,1.011902 1.457119,1.046034 0.128102,0.120413 0.143288,0.338806 0.03463,0.498008 -0.03043,0.04458 -0.529418,0.66459 -1.108865,1.377792 -0.620285,0.763472 -1.498105,1.885033 -2.134592,2.727301 l -1.081055,1.430567 -1.2509,1.314262 c -0.687994,0.722844 -1.773467,1.888783 -2.412163,2.590975 l -1.161264,1.276712 -1.019656,1.465001 -1.019656,1.464999 -1.20271,1.340283 c -0.661491,0.737157 -1.235448,1.357216 -1.275466,1.377909 -0.06373,0.03296 -0.216242,0.03629 -1.229233,0.02689 l -1.156479,-0.01074 -0.111373,-0.06527 c -0.07793,-0.04567 -0.133323,-0.104161 -0.184464,-0.194776 -0.05492,-0.09731 -0.366036,-0.411477 -1.251437,-1.263698 l -1.178348,-1.13419 -1.463678,-1.111043 c -0.926027,-0.702917 -1.992426,-1.542369 -2.903117,-2.285276 l -1.439439,-1.174242 -1.318565,-1.278506 -1.318566,-1.27851 -1.481914,-1.110217 -1.481914,-1.110218 -1.271007,-1.203017 -1.271009,-1.203015 0.105745,-0.05374 c 0.186233,-0.09465 3.965882,-1.887196 5.629933,-2.670072 0.88486,-0.416295 1.62115,-0.768893 1.636201,-0.783554 0.02034,-0.01982 -0.0022,-0.636959 -0.08808,-2.405014 -0.0635,-1.308094 -0.120304,-2.38321 -0.126239,-2.389145 -0.0059,-0.0059 -0.728377,0.03251 -1.605427,0.08543 l -1.594637,0.09622 -1.608835,0.216649 -1.608836,0.216648 -1.669319,0.01661 -1.669318,0.01661 -1.604106,0.324076 -1.604107,0.324075 -0.222466,0.149542 c -2.224823,1.495515 -3.331522,2.27598 -4.879623,3.4412 -0.898166,0.676028 -1.650879,1.246845 -1.672696,1.268481 -0.03675,0.03645 -0.03015,0.16369 0.08996,1.732849 0.0713,0.931432 0.129975,1.763081 0.130392,1.848112 4.16e-4,0.08503 -0.08258,0.906987 -0.184443,1.826573 l -0.185201,1.671972 0.03817,1.766091 0.03817,1.76609 -0.142458,1.669319 c -0.07835,0.918125 -0.148065,1.715587 -0.154918,1.772138 -0.01016,0.08381 -0.0052,0.102821 0.02677,0.102821 0.02158,0 0.696968,-0.141994 1.500872,-0.31554 1.335077,-0.288214 1.584543,-0.334304 2.880943,-0.532247 0.780615,-0.119189 1.431087,-0.216706 1.445492,-0.216706 0.01441,0 0.291357,-0.550358 0.615446,-1.223018 l 0.589254,-1.22302 0.305037,-1.471782 0.305037,-1.47178 1.719382,0.912251 1.719386,0.912251 1.522005,1.103102 1.522004,1.1031 1.717704,0.847608 c 0.944738,0.466182 2.458011,1.200298 3.36283,1.631364 l 1.645125,0.783757 1.550596,1.016612 1.550599,1.016615 1.6679,0.752139 c 1.11144,0.501205 2.155951,0.994525 3.130753,1.478644 0.804568,0.399577 1.466308,0.726652 1.470534,0.726836 0.0042,2.42e-4 0.625704,-0.473484 1.381066,-1.05259 z m -11.278328,0.672437 c 0.03239,-0.07681 0.06454,-0.157869 0.07143,-0.180119 0.01672,-0.05396 -0.135585,-0.15313 -0.294535,-0.19178 -0.06653,-0.01618 -0.164818,-0.05922 -0.218417,-0.09565 -0.0536,-0.03643 -0.151843,-0.08239 -0.218323,-0.102133 -0.139194,-0.04134 -0.524541,-0.213506 -0.510127,-0.22792 0.0053,-0.0053 0.196482,-0.04177 0.424806,-0.08101 0.893697,-0.153567 1.228456,-0.292167 1.399837,-0.579577 0.167998,-0.281735 0.186402,-0.402519 0.09297,-0.610185 -0.07372,-0.163859 -0.180214,-0.263246 -0.384057,-0.358422 -0.225179,-0.10514 -0.458086,-0.139596 -0.605061,-0.08952 l -0.111205,0.03789 0.04664,-0.108813 c 0.02565,-0.05985 0.04664,-0.116528 0.04664,-0.125959 0,-0.0094 -0.05904,-0.0461 -0.131189,-0.08149 l -0.131191,-0.06434 -0.03783,0.111012 c -0.0208,0.06106 -0.0658,0.147698 -0.100004,0.192535 -0.0342,0.04484 -0.08215,0.13955 -0.106546,0.210475 -0.0244,0.07092 -0.06189,0.162843 -0.08331,0.204266 -0.02142,0.04143 -0.03895,0.07982 -0.03895,0.08533 0,0.0055 0.05072,0.02938 0.112705,0.05305 0.133841,0.05111 0.133996,0.05099 0.255754,-0.211034 l 0.0755,-0.162468 0.132609,-0.02753 c 0.101081,-0.02099 0.165527,-0.02054 0.271057,0.0019 0.122426,0.02598 0.148155,0.04237 0.222353,0.141611 0.16413,0.219533 0.169399,0.445665 0.01597,0.68496 -0.103972,0.162149 -0.217118,0.237682 -0.505308,0.337324 -0.139714,0.04831 -0.346565,0.121136 -0.459667,0.161848 -0.113102,0.04071 -0.349763,0.118587 -0.525913,0.173063 -0.284081,0.08785 -0.324404,0.107037 -0.356847,0.169774 -0.02012,0.0389 -0.03657,0.07656 -0.03657,0.08368 0,0.01903 0.254172,0.144077 0.498076,0.245041 0.117063,0.04846 0.240058,0.106036 0.273319,0.12795 0.08359,0.05507 0.83522,0.429639 0.846963,0.422076 0.0052,-0.0034 0.03603,-0.06898 0.06842,-0.145796 z m -1.997422,-1.162162 c 0.253899,-0.138851 0.347352,-0.24322 0.60439,-0.674976 0.132832,-0.22312 0.189526,-0.343468 0.201378,-0.427483 0.0091,-0.06431 0.03203,-0.160942 0.051,-0.21473 0.04637,-0.131431 0.04349,-0.312973 -0.0075,-0.474836 -0.08533,-0.270686 -0.474154,-0.560891 -0.75054,-0.560168 -0.107276,2.9e-4 -0.289068,0.08084 -0.482626,0.213883 -0.224001,0.153965 -0.28698,0.225876 -0.406869,0.464589 -0.06212,0.123694 -0.137941,0.264487 -0.168485,0.312871 -0.03054,0.04838 -0.08252,0.196174 -0.115505,0.32842 -0.05635,0.225915 -0.05827,0.254344 -0.03177,0.470283 0.01551,0.126409 0.04107,0.253125 0.05681,0.281593 0.05451,0.09861 0.344531,0.342614 0.436191,0.366996 0.04925,0.0131 0.160308,0.02479 0.246798,0.02597 0.143871,0.002 0.175085,-0.0076 0.366763,-0.112415 z m -0.728843,-0.174028 c -0.06718,-0.08482 -0.07613,-0.114486 -0.0785,-0.260075 -0.0032,-0.196002 0.04922,-0.388721 0.147923,-0.544062 0.0397,-0.06249 0.08612,-0.160467 0.103147,-0.217737 0.01703,-0.05727 0.08568,-0.188052 0.152571,-0.290624 0.06689,-0.102571 0.174035,-0.268907 0.238105,-0.369635 0.153897,-0.241945 0.262456,-0.313851 0.440284,-0.291632 0.109104,0.01363 0.137216,0.02877 0.201134,0.108305 0.111951,0.139308 0.124362,0.289138 0.04037,0.48746 -0.03616,0.08537 -0.103241,0.263283 -0.149077,0.395355 -0.04584,0.132074 -0.115631,0.280903 -0.155094,0.330731 -0.03947,0.04983 -0.09497,0.143176 -0.123334,0.207438 -0.05874,0.133064 -0.304094,0.420714 -0.419896,0.492284 -0.0505,0.03121 -0.12017,0.04793 -0.199685,0.04793 -0.113356,0 -0.12757,-0.0069 -0.197954,-0.09574 z m -0.983911,-0.474156 c 0.02066,-0.06063 0.06608,-0.144123 0.100931,-0.185546 l 0.06337,-0.07531 -0.143334,-0.05388 c -0.07883,-0.02964 -0.228178,-0.105389 -0.331877,-0.168337 -0.103699,-0.06295 -0.24132,-0.128376 -0.305826,-0.145393 -0.06451,-0.01702 -0.158242,-0.06312 -0.208302,-0.10244 -0.05006,-0.03933 -0.131736,-0.08604 -0.181501,-0.103813 -0.119518,-0.04268 -0.07973,-0.06314 0.16098,-0.08278 0.107594,-0.0088 0.315378,-0.04708 0.461746,-0.08511 0.146368,-0.03803 0.336888,-0.08125 0.423378,-0.09605 0.163283,-0.02793 0.343514,-0.09024 0.534944,-0.184924 0.158807,-0.07855 0.256891,-0.239794 0.301582,-0.4958 l 0.03466,-0.198508 -0.111658,-0.198922 c -0.08413,-0.149898 -0.134622,-0.211837 -0.204835,-0.251298 -0.169262,-0.09513 -0.334863,-0.131947 -0.59504,-0.13229 l -0.245987,-3.15e-4 0.04639,-0.09094 c 0.02552,-0.05002 0.04639,-0.09954 0.04637,-0.110054 -1.4e-5,-0.01051 -0.05358,-0.04919 -0.119046,-0.08596 l -0.119023,-0.06685 -0.06162,0.134593 c -0.03389,0.07403 -0.08223,0.163988 -0.107429,0.19991 -0.0252,0.03592 -0.05967,0.108863 -0.0766,0.162088 -0.01693,0.05322 -0.06201,0.139761 -0.100161,0.192303 -0.0764,0.105213 -0.07719,0.103174 0.07161,0.184699 l 0.104635,0.05733 0.04574,-0.05991 c 0.02515,-0.03295 0.08102,-0.133395 0.124151,-0.223212 l 0.07842,-0.163302 0.158302,5.8e-4 c 0.08707,3.15e-4 0.200543,0.01038 0.252171,0.02236 0.124374,0.02885 0.261091,0.165678 0.314804,0.315048 0.04025,0.111934 0.04048,0.128049 0.0037,0.254709 -0.06874,0.236475 -0.138551,0.309685 -0.412334,0.432448 -0.412805,0.185098 -0.618083,0.258703 -0.857945,0.307624 -0.278089,0.05672 -0.676379,0.215448 -0.725236,0.289029 -0.0318,0.04789 -0.02968,0.0565 0.02418,0.09844 0.03247,0.02528 0.118909,0.07376 0.192093,0.107741 0.07318,0.03398 0.176609,0.08444 0.229833,0.112137 0.05322,0.0277 0.17298,0.08852 0.266123,0.135174 0.09314,0.04665 0.20935,0.116182 0.258237,0.154514 0.04889,0.03833 0.146868,0.09337 0.217737,0.122317 0.07087,0.02895 0.177843,0.08291 0.23772,0.11993 0.05988,0.03702 0.110567,0.06751 0.112643,0.06776 0.0021,2.42e-4 0.02068,-0.04914 0.04133,-0.109771 z m 16.118693,-3.235437 1.113639,-1.240872 1.020585,-1.466639 1.020582,-1.466641 1.140493,-1.254093 c 0.627272,-0.689751 1.717917,-1.861977 2.423654,-2.604947 l 1.283161,-1.350856 1.063475,-1.407149 c 0.584909,-0.773932 1.481655,-1.922348 1.992767,-2.552034 0.511111,-0.629686 0.934,-1.157699 0.939753,-1.173361 0.0059,-0.01593 -0.530514,-0.410428 -1.217622,-0.895553 -0.996595,-0.703633 -1.503892,-1.040559 -2.691275,-1.787424 -0.804754,-0.506193 -2.045636,-1.268701 -2.757516,-1.694462 -0.711879,-0.425761 -1.423006,-0.85158 -1.580283,-0.946262 -0.192845,-0.116095 -0.302076,-0.198237 -0.33547,-0.252265 -0.106573,-0.172441 -0.105748,-0.175117 0.58289,-1.889412 0.349562,-0.870204 0.688325,-1.694883 0.752804,-1.832621 0.06448,-0.137738 0.112865,-0.250432 0.107521,-0.250432 -0.0053,0 -0.132553,0.176529 -0.28269,0.392285 -0.166223,0.238877 -0.615938,0.982476 -1.149972,1.901479 -0.482348,0.830058 -0.876724,1.516315 -0.87639,1.525012 3.39e-4,0.0087 0.552782,0.364197 1.227665,0.789994 0.674882,0.425797 1.940206,1.248333 2.811832,1.827855 1.544833,1.027125 1.622577,1.075242 3.08474,1.909217 0.824982,0.470547 1.530153,0.876421 1.567045,0.901944 0.156069,0.107974 0.227884,0.435405 0.133983,0.610869 -0.02136,0.03992 -0.59405,0.667996 -1.272635,1.395727 l -1.233793,1.323148 -1.047819,1.374374 c -0.576302,0.755906 -1.56322,2.018472 -2.193153,2.8057 l -1.145334,1.431329 -1.328056,1.20571 -1.328056,1.205713 -1.120766,1.318519 c -1.001415,1.178106 -2.777126,3.31994 -2.777126,3.349724 0,0.01068 0.205923,0.01964 0.738939,0.03216 l 0.21879,0.0051 z m -20.37364,0.902661 0.03728,-0.07209 -0.170999,-0.08611 -0.171001,-0.08611 0.06989,-0.08977 c 0.03844,-0.04938 0.139722,-0.224475 0.225067,-0.389106 0.08534,-0.164633 0.16818,-0.304377 0.184083,-0.310539 0.0159,-0.0062 0.07578,0.0209 0.133061,0.06014 0.05728,0.03924 0.150551,0.0949 0.207262,0.123682 l 0.10311,0.05234 -0.04022,0.07799 c -0.02212,0.04289 -0.06645,0.119632 -0.09851,0.170532 -0.06401,0.101608 -0.05757,0.121891 0.06075,0.191342 l 0.07148,0.04196 0.06145,-0.09287 c 0.0338,-0.05108 0.118166,-0.20604 0.187479,-0.344368 0.06931,-0.138326 0.15859,-0.28873 0.198392,-0.334229 l 0.07237,-0.08273 -0.105678,-0.05399 c -0.05812,-0.02969 -0.112814,-0.04962 -0.121531,-0.04428 -0.0087,0.0053 -0.0457,0.06142 -0.08217,0.12462 -0.03647,0.0632 -0.06858,0.117852 -0.07134,0.121454 -0.01274,0.0166 -0.273231,-0.054 -0.390299,-0.105772 l -0.130369,-0.05765 0.137854,-0.211878 c 0.07582,-0.116533 0.197619,-0.320746 0.27066,-0.453807 0.07304,-0.133062 0.135974,-0.246118 0.139852,-0.251235 0.01285,-0.01696 0.156207,0.05202 0.29643,0.142654 0.150831,0.09749 0.462154,0.37789 0.462154,0.416255 0,0.01315 -0.05443,0.132643 -0.120965,0.26554 -0.06653,0.132898 -0.120965,0.245202 -0.120965,0.249566 0,0.0044 0.03963,0.03243 0.08807,0.06236 0.08438,0.05215 0.08942,0.05259 0.12019,0.0105 0.01767,-0.02416 0.06654,-0.126696 0.108596,-0.227857 0.04206,-0.10116 0.108169,-0.230078 0.146909,-0.286481 0.06203,-0.09031 0.141058,-0.269963 0.141058,-0.32065 0,-0.0099 -0.04199,-0.04572 -0.09331,-0.07968 l -0.09331,-0.06175 -0.03371,0.07086 -0.03371,0.07086 -0.193544,-0.128148 c -0.106449,-0.07048 -0.242535,-0.149512 -0.302413,-0.175626 -0.152389,-0.06646 -0.645027,-0.34193 -0.766127,-0.428396 -0.05545,-0.03959 -0.112483,-0.06478 -0.126736,-0.05597 -0.01476,0.0091 -0.02104,0.0025 -0.01459,-0.01548 0.01274,-0.03544 -0.142003,-0.145514 -0.362677,-0.257992 -0.07984,-0.04069 -0.179162,-0.09639 -0.220718,-0.123774 l -0.07556,-0.04978 -0.04256,0.06495 c -0.04672,0.0713 -0.05293,0.06036 0.09462,0.166583 0.04411,0.03176 0.04162,0.03912 -0.05763,0.170585 -0.128838,0.170643 -0.223394,0.259238 -0.363459,0.340541 -0.05988,0.03476 -0.167646,0.100999 -0.239482,0.1472 -0.100921,0.06491 -0.126522,0.07378 -0.112614,0.03903 0.0099,-0.02473 0.02624,-0.137513 0.03631,-0.250615 0.01007,-0.113103 0.03528,-0.245465 0.05602,-0.294141 0.02074,-0.04867 0.045,-0.162986 0.05391,-0.254027 0.02607,-0.266336 0.02019,-0.259289 0.158186,-0.189359 0.142886,0.07241 0.149068,0.07283 0.186637,0.01266 0.02689,-0.04306 0.01455,-0.05744 -0.133289,-0.155314 -0.08961,-0.05932 -0.276079,-0.184939 -0.414371,-0.279149 -0.138294,-0.09421 -0.25505,-0.171291 -0.259455,-0.171291 -0.0044,0 -0.02456,0.032 -0.04478,0.07111 -0.03668,0.07093 -0.03653,0.07125 0.06164,0.12642 0.08408,0.04726 0.09641,0.0642 0.08467,0.116386 -0.01343,0.05971 -0.06763,0.448933 -0.109575,0.786868 -0.02412,0.194343 -0.111256,0.567723 -0.159497,0.683443 -0.01803,0.04324 -0.05933,0.114005 -0.09179,0.157255 -0.03246,0.04325 -0.08637,0.133071 -0.119809,0.199602 -0.03344,0.06653 -0.08866,0.146958 -0.122724,0.178726 -0.05724,0.05339 -0.06785,0.05531 -0.140191,0.02535 -0.04304,-0.01783 -0.115551,-0.06516 -0.161125,-0.105177 l -0.08287,-0.07276 -0.04546,0.05614 c -0.025,0.03088 -0.04546,0.06542 -0.04546,0.07675 0,0.03241 0.273282,0.209685 0.464586,0.301365 0.09561,0.04582 0.212548,0.120287 0.25986,0.165485 0.08387,0.08012 0.29051,0.220045 0.30197,0.204474 0.04354,-0.05916 0.08646,-0.131104 0.08646,-0.144921 0,-0.0096 -0.07621,-0.05754 -0.169351,-0.10648 -0.09314,-0.04895 -0.169351,-0.09657 -0.169351,-0.105835 0,-0.02283 0.235819,-0.379593 0.329434,-0.498393 0.04147,-0.05263 0.09815,-0.140593 0.125954,-0.19547 0.06138,-0.121166 0.158645,-0.20597 0.339507,-0.296007 0.134431,-0.06692 0.521723,-0.316064 0.723534,-0.465444 l 0.10314,-0.07634 0.09503,0.06586 c 0.05227,0.03622 0.106561,0.05873 0.120648,0.05003 0.01409,-0.0087 0.02563,-0.007 0.02566,0.0037 2.4e-5,0.01076 0.04901,0.05051 0.108869,0.08832 0.05985,0.03781 0.108825,0.07257 0.108825,0.07725 0,0.02025 -0.111632,0.200267 -0.175267,0.282639 -0.06459,0.08361 -0.162669,0.249767 -0.339619,0.575373 -0.03977,0.07318 -0.108351,0.187496 -0.152397,0.254027 -0.04404,0.06653 -0.09881,0.169956 -0.12169,0.229834 -0.03286,0.08597 -0.187487,0.346093 -0.277383,0.46662 -0.0078,0.01048 -0.0623,-0.0084 -0.121089,-0.04205 -0.05879,-0.0336 -0.114766,-0.06123 -0.124405,-0.06139 -0.01887,-3.14e-4 -0.100079,0.145059 -0.08708,0.155893 0.0043,0.0036 0.08175,0.04144 0.172085,0.08412 0.09034,0.04267 0.237314,0.133262 0.326605,0.201307 0.160451,0.122267 0.352241,0.232052 0.409709,0.234523 0.01629,7.01e-4 0.04639,-0.03117 0.0669,-0.07082 z M 31.38053,51.352844 c 0.170737,-0.06488 0.478347,-0.285366 0.575344,-0.412399 l 0.08333,-0.109135 -0.05563,-0.04333 c -0.05506,-0.04289 -0.05663,-0.04223 -0.152401,0.06309 -0.207978,0.228716 -0.435201,0.303637 -0.641115,0.211392 -0.271023,-0.12141 -0.401,-0.415479 -0.303918,-0.6876 0.05864,-0.164384 0.326492,-0.606393 0.467973,-0.772255 0.158302,-0.185587 0.306569,-0.299892 0.469231,-0.361754 0.10267,-0.03905 0.123931,-0.03977 0.229834,-0.0078 0.15834,0.04774 0.225566,0.150757 0.225566,0.345658 0,0.130531 -0.01006,0.156435 -0.133761,0.34446 l -0.133761,0.203314 0.05513,0.04227 c 0.03032,0.02325 0.117308,0.07566 0.193295,0.116463 l 0.138162,0.07419 0.06468,-0.09773 c 0.03557,-0.05375 0.09023,-0.196111 0.121458,-0.31635 0.04941,-0.190232 0.05329,-0.234985 0.02987,-0.344702 -0.05449,-0.25529 -0.242658,-0.450293 -0.531508,-0.550829 -0.225636,-0.07853 -0.37781,-0.08844 -0.570481,-0.03715 -0.163136,0.04343 -0.239552,0.09869 -0.503215,0.363865 -0.256786,0.258263 -0.381506,0.437923 -0.45884,0.660968 -0.03105,0.08957 -0.07388,0.20332 -0.09517,0.252793 -0.02659,0.06178 -0.03871,0.162969 -0.03871,0.323124 0,0.22642 0.0023,0.236076 0.07863,0.333225 0.142823,0.181736 0.304961,0.304433 0.518094,0.392065 0.171129,0.07037 0.215598,0.07208 0.367925,0.0142 z m 44.518492,-5.432455 c 0.13375,-0.118505 0.24012,-0.222317 0.23638,-0.230693 -0.0211,-0.04714 -1.90134,-1.828421 -2.63175,-2.493199 -0.47237,-0.429922 -0.88607,-0.806619 -0.91934,-0.837105 l -0.0605,-0.05543 -0.37096,0.05712 c -0.20402,0.03141 -0.37598,0.06215 -0.38213,0.06829 -0.006,0.0061 0.42005,0.384149 0.9471,0.84001 0.94459,0.817013 0.97213,0.843446 1.93048,1.852939 0.53472,0.563254 0.98016,1.021724 0.98987,1.018819 0.01,-0.0029 0.12708,-0.10224 0.26083,-0.220747 z M 22.710408,34.184029 c 0.404582,-0.01826 1.016036,-0.08858 1.596739,-0.183628 0.476105,-0.07793 1.26251,-0.270127 1.308469,-0.31979 0.01443,-0.0156 0.104931,-0.221095 0.20111,-0.45667 0.09618,-0.235572 0.281,-0.622762 0.410713,-0.860417 0.225678,-0.413481 0.241694,-0.452894 0.371569,-0.9144 0.09222,-0.327685 0.195331,-0.621891 0.321662,-0.917767 l 0.185936,-0.435474 0.0657,-0.508053 0.0657,-0.508054 -0.05014,-0.508053 c -0.0447,-0.452995 -0.04739,-0.56049 -0.02481,-0.991914 0.01401,-0.267749 0.01809,-0.710776 0.0091,-0.991914 L 27.155966,26.079842 26.966885,25.608078 26.777805,25.136314 26.42591,24.76702 C 26.121308,24.447318 26.022037,24.3613 25.686722,24.12648 25.341937,23.885028 25.25287,23.835662 24.875849,23.677046 24.6429,23.579046 24.235017,23.417472 23.969443,23.318 l -0.482863,-0.180858 -0.482747,0.02675 -0.482747,0.02675 -0.432772,0.231391 -0.432773,0.231391 -0.248781,0.330161 c -0.13683,0.181589 -0.260136,0.351935 -0.274014,0.378547 -0.01388,0.02661 -0.07617,0.22802 -0.138423,0.447571 -0.06226,0.219552 -0.166074,0.578818 -0.230707,0.79837 l -0.117514,0.399185 -0.0101,0.453551 c -0.0056,0.249454 -0.01466,0.457635 -0.02024,0.462626 -0.0056,0.005 -0.213626,-0.01683 -0.462323,-0.04849 -0.416459,-0.05301 -0.488896,-0.06997 -0.917075,-0.214645 l -0.4649,-0.157085 h -0.401102 c -0.294461,0 -0.532701,0.01714 -0.896083,0.06446 l -0.494982,0.06446 -0.417996,0.202716 -0.417995,0.202713 -0.268562,0.325883 c -0.251579,0.305272 -0.279834,0.350721 -0.446822,0.71869 l -0.178261,0.39281 -0.04236,0.403931 c -0.03745,0.357104 -0.03881,0.449659 -0.01173,0.79837 0.01685,0.216941 0.06753,0.598361 0.11263,0.8476 l 0.082,0.453162 0.288843,0.381497 c 0.34741,0.458852 0.799505,0.913262 1.237141,1.24348 0.385358,0.290769 0.964437,0.707847 1.030999,0.742568 0.02815,0.01469 0.224114,0.09115 0.435474,0.169927 l 0.384293,0.143225 0.443799,0.01779 0.443799,0.01779 0.407731,0.164002 c 0.387698,0.155944 0.42915,0.167169 0.843663,0.22846 0.486571,0.07194 1.184213,0.133112 1.368995,0.120029 0.06653,-0.0047 0.262495,-0.01495 0.435475,-0.02276 z m -0.08945,-2.225484 c -0.0093,-0.0096 -0.352213,-0.02665 -0.76208,-0.03796 -0.818036,-0.02256 -0.937682,-0.03907 -1.282601,-0.177025 -0.116927,-0.04677 -0.386785,-0.146273 -0.599683,-0.221127 -0.633311,-0.222665 -1.012504,-0.420382 -1.088655,-0.56764 -0.0823,-0.159152 -0.01758,-0.382332 0.134522,-0.463906 0.124368,-0.0667 0.259029,-0.0571 0.393288,0.02805 0.208851,0.132449 0.44446,0.227303 1.552758,0.625128 0.158925,0.05705 0.210311,0.06192 0.834659,0.0792 0.36592,0.01013 0.771513,0.02979 0.90132,0.04368 0.271305,0.02904 0.526842,0.0052 0.71655,-0.0669 0.199507,-0.07581 0.510702,-0.299198 0.718256,-0.515602 0.349715,-0.364625 0.51164,-0.773794 0.577593,-1.459519 0.0077,-0.07984 0.042,-0.395556 0.07627,-0.701597 0.0616,-0.55007 0.06574,-0.808906 0.01996,-1.249175 -0.01049,-0.100856 -0.0039,-0.156181 0.02537,-0.212759 0.112724,-0.217986 0.46175,-0.227228 0.592487,-0.01569 0.0264,0.04272 0.06597,0.180371 0.08792,0.305887 0.04721,0.269911 0.03796,0.588904 -0.03575,1.23222 -0.02668,0.232858 -0.06575,0.584141 -0.08682,0.780632 -0.09155,0.853822 -0.335377,1.40866 -0.827003,1.881878 -0.334997,0.322454 -0.73995,0.570998 -1.084754,0.665777 -0.152018,0.04179 -0.832662,0.07839 -0.863623,0.04644 z m -2.20889,-2.754712 c -0.09697,-0.04336 -0.319873,-0.246503 -0.363901,-0.331643 -0.05886,-0.113818 -0.04449,-0.224155 0.04436,-0.340647 0.111796,-0.146576 0.208836,-0.204654 0.372978,-0.223224 0.380792,-0.04308 0.539288,0.08173 0.539288,0.424667 0,0.137162 -0.0096,0.171306 -0.07239,0.258019 -0.137041,0.189177 -0.364845,0.282356 -0.520335,0.212828 z m 1.67543,-1.086429 c -0.128375,-0.07771 -0.16299,-0.139078 -0.179759,-0.318653 -0.01908,-0.204317 0.03035,-0.338301 0.173489,-0.47024 0.121091,-0.111617 0.188063,-0.134714 0.340743,-0.117503 0.432707,0.04877 0.544131,0.629498 0.169403,0.882903 -0.09996,0.0676 -0.137104,0.07861 -0.264743,0.0785 -0.111407,0 -0.171106,-0.01383 -0.239133,-0.05501 z m 48.345395,3.000878 c 0.893789,-1.121196 1.367999,-1.688251 2.321619,-2.776149 0.65912,-0.751933 1.68607,-1.932018 2.2821,-2.622414 0.87232,-1.010419 1.07743,-1.260831 1.05155,-1.283804 -0.16214,-0.143936 -0.33352,-0.279418 -0.35345,-0.279418 -0.0134,0 -0.50123,0.606942 -1.08402,1.348761 -0.76199,0.969934 -1.4301,1.783644 -2.37873,2.897114 l -1.31912,1.548353 -0.898069,1.260086 c -0.493939,0.693048 -0.90591,1.272773 -0.915493,1.288278 -0.01212,0.01961 0.01116,0.02819 0.07649,0.02819 h 0.09391 z"
     id="path492" /><g
     aria-label="CITY HUNT"
     id="text548"
     style="font-weight:bold;font-size:14.5785px;font-family:'Yu Gothic';-inkscape-font-specification:'Yu Gothic Bold';fill:#fff6d5;stroke-width:1.74702"><path
       d="m 19.253469,76.526855 -1.907733,0.462696 q -0.419986,-2.391785 -2.377548,-2.391785 -1.38809,0 -2.142641,1.238603 -0.697604,1.138945 -0.697604,3.103626 0,2.23518 0.904038,3.395481 0.747433,0.953866 1.936207,0.953866 2.021628,0 2.491443,-2.420258 l 1.857904,0.569472 q -0.868446,3.367007 -4.363584,3.367007 -2.391785,0 -3.722928,-1.729773 -1.188774,-1.544694 -1.188774,-4.11444 0,-2.954139 1.537576,-4.541544 1.302669,-1.338261 3.374126,-1.338261 1.836549,0 2.989731,1.039288 0.982341,0.889801 1.309787,2.406022 z"
       id="path780" /><path
       d="m 23.118765,73.287979 v 11.31115 h -1.986036 v -11.31115 z"
       id="path782" /><path
       d="m 33.611298,73.287979 v 1.587405 h -3.367007 v 9.723745 h -1.986036 v -9.723745 h -3.338533 v -1.587405 z"
       id="path784" /><path
       d="m 43.733676,73.287979 -3.701573,6.634356 v 4.676794 h -1.986036 v -4.676794 l -3.644624,-6.634356 h 2.185351 l 2.249417,4.206979 q 0.0783,0.142368 0.348802,0.690486 0.185078,-0.391513 0.363039,-0.704723 l 2.178232,-4.192742 z"
       id="path786" /><path
       d="m 44.068239,84.570656 q 0,0 0,0 z"
       id="path788" /><path
       d="m 58.191161,73.287979 v 11.31115 h -1.950444 v -5.103898 h -4.712386 v 5.103898 h -1.950444 v -11.31115 h 1.950444 v 4.60561 h 4.712386 v -4.60561 z"
       id="path790" /><path
       d="m 69.459603,73.287979 v 7.403144 q 0,2.135523 -1.309787,3.210402 -1.103353,0.904038 -2.961257,0.904038 -2.156878,0 -3.288705,-1.167419 -1.025051,-1.060642 -1.025051,-2.947021 v -7.403144 h 1.964681 v 7.374671 q 0,2.640929 2.391785,2.640929 2.391785,0 2.391785,-2.640929 v -7.374671 z"
       id="path792" /><path
       d="m 80.82058,73.287979 v 11.31115 h -2.406022 l -2.740587,-5.829976 q -0.875564,-1.886378 -1.622997,-3.737164 h -0.199316 q 0.09966,1.87926 0.09966,4.085966 v 5.481174 H 72.14324 v -11.31115 h 2.961258 l 2.349075,5.011359 q 0.868446,1.92197 1.501984,3.879533 h 0.199315 q -0.142368,-2.306365 -0.142368,-4.142914 v -4.747978 z"
       id="path794" /><path
       d="m 91.313118,73.287979 v 1.587405 h -3.367007 v 9.723745 h -1.986036 v -9.723745 h -3.338533 v -1.587405 z"
       id="path796" /></g></svg>
